<?xml version="1.0" encoding="UTF-8" standalone="no"?>
<svg
   id="svg2872"
   height="100"
   width="100"
   version="1.1"
   sodipodi:docname="simplayer.svg"
   inkscape:version="1.1 (1:1.1+202105261517+ce6663b3b7)"
   xmlns:inkscape="http://www.inkscape.org/namespaces/inkscape"
   xmlns:sodipodi="http://sodipodi.sourceforge.net/DTD/sodipodi-0.dtd"
   xmlns:xlink="http://www.w3.org/1999/xlink"
   xmlns="http://www.w3.org/2000/svg"
   xmlns:svg="http://www.w3.org/2000/svg"
   xmlns:rdf="http://www.w3.org/1999/02/22-rdf-syntax-ns#"
   xmlns:cc="http://creativecommons.org/ns#"
   xmlns:dc="http://purl.org/dc/elements/1.1/">
  <sodipodi:namedview
     id="namedview27"
     pagecolor="#ffffff"
     bordercolor="#666666"
     borderopacity="1.0"
     inkscape:pageshadow="2"
     inkscape:pageopacity="0.0"
     inkscape:pagecheckerboard="0"
     showgrid="false"
     inkscape:zoom="9.3338095"
     inkscape:cx="-11.08872"
     inkscape:cy="49.068925"
     inkscape:window-width="3440"
     inkscape:window-height="1243"
     inkscape:window-x="0"
     inkscape:window-y="0"
     inkscape:window-maximized="1"
     inkscape:current-layer="svg2872" />
  <title
     id="title4708">Octave logo plus various sciences</title>
  <metadata
     id="metadata2942">
    <rdf:RDF>
      <cc:Work
         rdf:about="">
        <dc:format>image/svg+xml</dc:format>
        <dc:type
           rdf:resource="http://purl.org/dc/dcmitype/StillImage" />
        <dc:title>Octave logo plus various sciences</dc:title>
        <dc:creator>
          <cc:Agent>
            <dc:title>Oliver Heimlich &lt;oheim@posteo.de&gt;</dc:title>
          </cc:Agent>
        </dc:creator>
        <dc:date>2018-08-29</dc:date>
        <dc:source />
        <dc:relation>https://www.gnu.org/software/octave/img/octave-logo.svg</dc:relation>
      </cc:Work>
    </rdf:RDF>
  </metadata>
  <defs
     id="defs2874">
    <radialGradient
       gradientTransform="matrix(0.2344736,-0.25475775,0.78213743,0.84979954,-207.75065,-227.72942)"
       gradientUnits="userSpaceOnUse"
       xlink:href="#linearGradient3755"
       id="radialGradient3033"
       fy="395.04871"
       fx="182.9837"
       r="148.95309"
       cy="395.04871"
       cx="182.9837" />
    <linearGradient
       id="linearGradient3755">
      <stop
         offset="0"
         style="stop-color:#008cbe;stop-opacity:1"
         id="stop3757" />
      <stop
         offset="1"
         style="stop-color:#b2ffff;stop-opacity:1"
         id="stop3759" />
    </linearGradient>
  </defs>
  <g
     id="g55912">
    <path
       style="fill:#ffd64b;fill-opacity:1;stroke:#ffffff;stroke-width:1.44657;stroke-linecap:round;stroke-linejoin:round;stroke-miterlimit:4;stroke-dasharray:none;stroke-dashoffset:0;stroke-opacity:1;paint-order:fill markers stroke"
       d="M 40.520699,0.72329982 31.041238,17.1489 40.520534,33.5745 H 59.479377 L 68.95876,17.1489 v 0 L 59.47946,0.72329982 Z"
       id="path4501"
       sodipodi:nodetypes="cccccccc" />
    <path
       style="fill:#ff874b;fill-opacity:1;stroke:#ffffff;stroke-width:1.44657;stroke-linecap:round;stroke-linejoin:round;stroke-miterlimit:4;stroke-dasharray:none;stroke-dashoffset:0;stroke-opacity:1;paint-order:fill markers stroke"
       d="M 12.082396,17.1489 2.6030145,33.5745 12.082396,50.0001 h 18.95884 L 40.520534,33.5745 31.041239,17.1489 Z"
       id="path4503"
       sodipodi:nodetypes="ccccccc" />
    <path
       style="fill:#f0466e;fill-opacity:1;stroke:#ffffff;stroke-width:1.44657;stroke-linecap:round;stroke-linejoin:round;stroke-miterlimit:4;stroke-dasharray:none;stroke-dashoffset:0;stroke-opacity:1;paint-order:fill markers stroke"
       d="M 12.082396,50.0001 2.6030145,66.4257 12.082396,82.8512 H 31.041239 L 40.5207,66.4257 31.041236,50.0001 Z"
       id="path4505"
       sodipodi:nodetypes="ccccccc" />
    <path
       style="fill:#38bf93;fill-opacity:1;stroke:#ffffff;stroke-width:1.44657;stroke-linecap:round;stroke-linejoin:round;stroke-miterlimit:4;stroke-dasharray:none;stroke-dashoffset:0;stroke-opacity:1;paint-order:fill markers stroke"
       d="m 40.520699,66.4257 v 0 l -9.479461,16.4255 9.479461,16.4255 H 59.47946 l 9.4793,-16.4255 -9.379606,-16.2527 z"
       id="path4507"
       sodipodi:nodetypes="cccccccc" />
    <path
       style="fill:#427cbd;fill-opacity:1;stroke:#ffffff;stroke-width:1.44657;stroke-linecap:round;stroke-linejoin:round;stroke-miterlimit:4;stroke-dasharray:none;stroke-dashoffset:0;stroke-opacity:1;paint-order:fill markers stroke"
       d="m 59.579153,66.5985 9.379606,16.2527 H 87.917602 L 97.396984,66.4257 87.917602,50.0001 H 68.95876 Z"
       id="path4509"
       sodipodi:nodetypes="ccccccc" />
    <path
       style="fill:#564dc5;fill-opacity:1;stroke:#ffffff;stroke-width:1.44657;stroke-linecap:round;stroke-linejoin:round;stroke-miterlimit:4;stroke-dasharray:none;stroke-dashoffset:0;stroke-opacity:1;paint-order:fill markers stroke"
       d="M 68.95876,17.1489 59.479461,33.5745 68.95876,50.0001 H 87.917603 L 97.396985,33.5745 87.917603,17.1489 Z"
       id="path4511"
       sodipodi:nodetypes="ccccccc" />
    <path
       d="M 28.752369,26.0555 C 28.707479,25.8449 28.541744,25.6791 28.33112,25.6343 27.2193,25.396 26.34918,25.396 25.482513,25.396 c -3.563349,0 -5.700667,1.906 -7.295887,4.4197 h -3.597878 c -0.62842,0 -1.201594,0.3556 -1.481275,0.915 l -1.705712,3.4114 c -0.276228,0.5525 0.124303,1.1981 0.742365,1.1981 h 3.283667 c -0.203718,0.442 -0.41089,0.8805 -0.621514,1.3018 -0.107038,0.214 -0.0656,0.4696 0.103586,0.6387 l 2.196017,2.1961 c 0.16919,0.1692 0.424701,0.2106 0.638777,0.1035 0.42125,-0.2106 0.859763,-0.4143 1.301728,-0.618 v 3.2837 c 0,0.6146 0.649137,1.0151 1.198142,0.7423 l 3.40797,-1.7057 c 0.562815,-0.2797 0.915007,-0.8563 0.915007,-1.4813 v -3.6048 c 2.506774,-1.5986 4.419657,-3.7429 4.419657,-7.2889 0.0035,-0.8702 0.0035,-1.7403 -0.234794,-2.8521 z m -3.628953,4.8651 c -0.915007,0 -1.657371,-0.7424 -1.657371,-1.6574 0,-0.915 0.742363,-1.6574 1.657371,-1.6574 0.915007,0 1.657371,0.7424 1.657371,1.6574 0,0.915 -0.742364,1.6574 -1.657371,1.6574 z"
       id="path4572"
       style="fill:#ffffff;fill-opacity:1;stroke-width:0.0413305" />
    <path
       d="m 83.744547,26.3926 v 14.3639 c 0,0.9153 -0.742019,1.6573 -1.657375,1.6573 h -7.734399 c -0.915351,0 -1.65737,-0.742 -1.65737,-1.6573 V 26.3926 c 0,-0.9154 0.742019,-1.6574 1.65737,-1.6574 h 7.734399 c 0.915356,0 1.657375,0.742 1.657375,1.6574 z m 3.314741,2.0026 v 0.4144 a 0.20717142,0.20717142 0 0 1 -0.20717,0.2071 h -0.621516 v 0.2072 a 0.20717142,0.20717142 0 0 1 -0.207169,0.2072 h -1.450201 v -1.6574 h 1.450201 a 0.20717142,0.20717142 0 0 1 0.207169,0.2072 v 0.2072 h 0.621516 a 0.20717142,0.20717142 0 0 1 0.20717,0.2071 z m 0,3.3148 v 0.4143 a 0.20717142,0.20717142 0 0 1 -0.20717,0.2072 h -0.621516 v 0.2072 a 0.20717142,0.20717142 0 0 1 -0.207169,0.2071 h -1.450201 v -1.6573 h 1.450201 a 0.20717142,0.20717142 0 0 1 0.207169,0.2071 v 0.2072 h 0.621516 a 0.20717142,0.20717142 0 0 1 0.20717,0.2072 z m 0,3.3147 v 0.4144 a 0.20717142,0.20717142 0 0 1 -0.20717,0.2071 h -0.621516 v 0.2072 a 0.20717142,0.20717142 0 0 1 -0.207169,0.2072 h -1.450201 v -1.6574 h 1.450201 a 0.20717142,0.20717142 0 0 1 0.207169,0.2072 v 0.2071 h 0.621516 a 0.20717142,0.20717142 0 0 1 0.20717,0.2072 z m 0,3.3148 v 0.4143 a 0.20717142,0.20717142 0 0 1 -0.20717,0.2072 h -0.621516 v 0.2071 a 0.20717142,0.20717142 0 0 1 -0.207169,0.2072 h -1.450201 v -1.6574 h 1.450201 a 0.20717142,0.20717142 0 0 1 0.207169,0.2072 v 0.2072 h 0.621516 a 0.20717142,0.20717142 0 0 1 0.20717,0.2072 z M 70.416516,37.7179 h 1.450202 v 1.6574 H 70.416516 A 0.20717142,0.20717142 0 0 1 70.209348,39.1681 V 38.961 h -0.621517 a 0.20717142,0.20717142 0 0 1 -0.207169,-0.2072 v -0.4143 a 0.20717142,0.20717142 0 0 1 0.207169,-0.2072 h 0.621516 v -0.2072 a 0.20717142,0.20717142 0 0 1 0.207169,-0.2072 z m 0,-3.3147 h 1.450202 v 1.6574 h -1.450202 a 0.20717142,0.20717142 0 0 1 -0.207168,-0.2072 v -0.2072 h -0.621517 a 0.20717142,0.20717142 0 0 1 -0.207169,-0.2071 v -0.4144 a 0.20717142,0.20717142 0 0 1 0.207169,-0.2072 h 0.621516 v -0.2071 a 0.20717142,0.20717142 0 0 1 0.207169,-0.2072 z m 0,-3.3147 h 1.450202 v 1.6573 H 70.416516 A 0.20717142,0.20717142 0 0 1 70.209348,32.5387 V 32.3315 H 69.587831 A 0.20717142,0.20717142 0 0 1 69.380662,32.1243 V 31.71 a 0.20717142,0.20717142 0 0 1 0.207169,-0.2072 h 0.621516 v -0.2072 a 0.20717142,0.20717142 0 0 1 0.207169,-0.2071 z m 0,-3.3148 h 1.450202 v 1.6574 h -1.450202 a 0.20717142,0.20717142 0 0 1 -0.207168,-0.2072 v -0.2072 h -0.621517 a 0.20717142,0.20717142 0 0 1 -0.207169,-0.2071 v -0.4144 a 0.20717142,0.20717142 0 0 1 0.207169,-0.2071 h 0.621516 v -0.2072 a 0.20717142,0.20717142 0 0 1 0.207169,-0.2072 z"
       id="path5140"
       style="fill:#ffffff;fill-opacity:1;stroke-width:0.0413305" />
    <path
       d="m 46.685268,82.7868 h 0.414343 v 0.5525 c 0,0.3052 0.247226,0.5524 0.552461,0.5524 h 1.381142 c 0.30523,0 0.552456,-0.2472 0.552456,-0.5524 v -0.5525 h 0.414343 c 0.610121,0 1.104914,-0.4948 1.104914,-1.1049 v -7.7344 c 0,-0.6101 -0.494793,-1.1049 -1.104914,-1.1049 v -0.5525 c 0,-0.3052 -0.247227,-0.5524 -0.552457,-0.5524 h -2.209827 c -0.305234,0 -0.552461,0.2472 -0.552461,0.5524 v 0.5525 c -0.610117,0 -1.104913,0.4948 -1.104913,1.1049 v 7.7344 c 0,0.6101 0.494796,1.1049 1.104913,1.1049 z m 10.496687,4.4197 h -0.04454 c 1.054155,-1.1743 1.701912,-2.7209 1.701912,-4.4197 0,-3.6559 -2.973599,-6.6295 -6.629486,-6.6295 v 2.2099 c 2.437025,0 4.419659,1.9826 4.419659,4.4196 0,2.437 -1.982634,4.4197 -4.419659,4.4197 h -9.391769 c -0.915353,0 -1.657372,0.742 -1.657372,1.6573 0,0.3053 0.247225,0.5525 0.552456,0.5525 H 58.28687 c 0.30523,0 0.552457,-0.2472 0.552457,-0.5525 0,-0.9153 -0.742019,-1.6573 -1.65737,-1.6573 z M 44.751668,86.1016 h 7.181944 c 0.152617,0 0.276228,-0.1237 0.276228,-0.2763 v -0.5524 c 0,-0.1526 -0.123611,-0.2763 -0.276228,-0.2763 h -7.181944 c -0.152616,0 -0.276228,0.1237 -0.276228,0.2763 v 0.5524 c 0,0.1526 0.123611,0.2763 0.276228,0.2763 z"
       id="path5708"
       style="fill:#ffffff;fill-opacity:1;stroke-width:0.0413305" />
    <path
       d="m 28.199446,68.8999 c -0.864941,0.7019 -1.817239,1.2838 -2.849988,1.6936 l 1.877664,3.2523 1.862816,0.7955 c 0.338725,0.1447 0.721301,-0.076 0.765498,-0.442 l 0.242391,-2.0113 z m 1.467119,-3.265 c 0.167809,-0.2649 0.06526,-0.6212 -0.208898,-0.7731 L 28.48845,64.3242 c -0.258274,-0.1433 -0.57352,-0.05 -0.734077,0.1975 -1.41947,2.1936 -3.862713,3.535 -6.495515,3.535 -0.826269,0 -1.630784,-0.1468 -2.396628,-0.3981 l 2.325845,-4.0288 c 0.02417,7e-4 0.04627,0.01 0.07044,0.01 0.02417,0 0.04661,-0.01 0.07044,-0.01 l 1.764065,3.0558 c 1.078327,-0.3094 2.056521,-0.8891 2.852405,-1.6892 L 24.15719,61.8989 c 0.257238,-0.4707 0.416415,-1.0024 0.416415,-1.5766 0,-1.8307 -1.484038,-3.3147 -3.314743,-3.3147 -1.830705,0 -3.314742,1.484 -3.314742,3.3147 0,0.5742 0.159176,1.1059 0.416069,1.5766 l -2.358302,4.085 c -0.433333,-0.4008 -0.827304,-0.849 -1.162922,-1.3466 -0.165391,-0.2451 -0.482364,-0.3321 -0.738221,-0.184 l -0.958167,0.5549 c -0.27105,0.1567 -0.367039,0.5144 -0.194742,0.7758 0.53761,0.8163 1.197796,1.5265 1.93291,2.1415 l -2.461197,4.2629 0.242391,2.0113 c 0.0442,0.3656 0.426773,0.5866 0.765498,0.4419 l 1.862816,-0.7955 2.444623,-4.2342 c 1.111475,0.4226 2.302365,0.6546 3.523986,0.6546 3.420055,0 6.590813,-1.7613 8.407707,-4.6316 z m -8.407707,-6.4175 c 0.61012,0 1.104914,0.4948 1.104914,1.1049 0,0.6101 -0.494794,1.1049 -1.104914,1.1049 -0.610119,0 -1.104914,-0.4948 -1.104914,-1.1049 0,-0.6101 0.494795,-1.1049 1.104914,-1.1049 z"
       id="path6276"
       style="fill:#ffffff;fill-opacity:1;stroke-width:0.0413305" />
    <path
       d="m 86.413316,70.94 -4.046745,-6.5087 v -5.2138 h 0.276228 c 0.459228,0 0.828685,-0.3694 0.828685,-0.8287 v -0.5524 c 0,-0.4593 -0.369457,-0.8287 -0.828685,-0.8287 h -7.181942 c -0.459232,0 -0.82869,0.3694 -0.82869,0.8287 v 0.5524 c 0,0.4593 0.369458,0.8287 0.82869,0.8287 h 0.276228 v 5.2138 l -4.04675,6.5087 c -1.011688,1.6263 0.155378,3.7463 2.075168,3.7463 h 10.572649 c 1.923242,0 3.086853,-2.1235 2.075164,-3.7463 z m -10.334399,-2.8832 1.664277,-2.6794 c 0.127757,-0.1795 0.200263,-0.4005 0.200263,-0.6353 v -5.5246 h 2.209831 v 5.5246 c 0,0.2382 0.07596,0.4558 0.200267,0.6353 l 1.664277,2.6794 z"
       id="path6844"
       style="fill:#ffffff;fill-opacity:1;stroke-width:0.0413305" />
    <path
       d="m 44.94024,16.5347 4.646856,-4.6462 -1.523401,-1.5234 -2.129722,2.1298 a 0.27343174,0.27343174 0 0 1 -0.387068,0 l -0.387064,-0.3871 c -0.107039,-0.107 -0.107039,-0.2804 0,-0.3871 l 2.129725,-2.1297002 -1.161541,-1.1619 c -0.427813,-0.4278 -1.121145,-0.4278 -1.548952,0 L 41.481514,11.5267 c -0.427464,0.4278 -0.427809,1.1211 0,1.5489 z m 13.413316,-4.0329 c 0.647753,-0.6478 0.647409,-1.6978 0,-2.3456 L 56.791133,8.5937998 c -0.647751,-0.6477 -1.698113,-0.6477 -2.346213,0 l -1.589005,1.5887002 3.908634,3.9086 z m -6.279024,-1.5376 -10.254983,10.2536 -0.647756,3.7098 c -0.08736,0.5003 0.348393,0.936 0.849057,0.848 l 3.710096,-0.6505 10.252221,-10.2526 z m 6.444069,9.8555 -1.16154,-1.1615 -2.129725,2.1297 c -0.107039,0.107 -0.28037,0.107 -0.387065,0 l -0.387065,-0.3871 c -0.106695,-0.107 -0.106695,-0.2803 0,-0.387 l 2.129722,-2.1298 -1.524088,-1.5241 -4.646857,4.6462 3.460109,3.4598 c 0.427808,0.4278 1.12114,0.4278 1.548952,0 l 3.097557,-3.0972 c 0.427808,-0.4279 0.427808,-1.1212 0,-1.549 z"
       id="path7412"
       style="fill:#ffffff;fill-opacity:1;stroke-width:0.0413305" />
    <g
       id="g55892">
      <path
         style="fill:#f964ff;fill-opacity:1;stroke:#ffffff;stroke-width:1.44657;stroke-linecap:round;stroke-linejoin:round;stroke-miterlimit:4;stroke-dasharray:none;stroke-dashoffset:0;stroke-opacity:1;paint-order:fill markers stroke"
         d="m 40.520534,33.5745 -9.479298,16.4256 9.479298,16.4256 H 59.479377 L 68.95876,50.0001 59.479377,33.5745 Z"
         id="path4511-7"
         sodipodi:nodetypes="ccccccc" />
      <g
         id="g55885"
         transform="translate(0,0.7499225)">
        <g
           aria-label="SP"
           id="text21722"
           style="font-size:26.6667px;line-height:1.25;font-family:Purisa;-inkscape-font-specification:Purisa;letter-spacing:0px">
          <path
             d="m 49.510684,52.88353 q 0,2.096357 -1.471356,3.476567 -1.757815,1.614585 -5.130215,1.614585 -1.289064,0 -3.203129,-0.572917 -0.598959,-0.143229 -0.924481,-0.716147 -0.338542,-0.572917 -0.195312,-1.184897 l 0.02604,-0.05208 q 0.169271,-0.664064 0.75521,-0.989585 0.598959,-0.338542 1.263022,-0.117188 1.562502,0.494793 2.617191,0.494793 1.041668,0 1.705731,-0.45573 0.664064,-0.45573 0.664064,-1.184897 0,-0.742189 -0.585939,-1.21094 -0.598959,-0.46875 -2.070315,-1.002605 -4.518235,-1.614585 -4.518235,-4.895839 0,-2.239587 1.705732,-3.554692 1.705731,-1.380211 4.492193,-1.354169 1.002605,0 2.695316,0.416667 0.61198,0.14323 0.950522,0.729168 0.338542,0.585938 0.182292,1.197918 l -0.02604,0.02604 q -0.195313,0.598959 -0.716147,0.911459 -0.533855,0.325522 -1.158855,0.156251 -2.59115,-0.729168 -3.658859,0.117187 -0.572918,0.45573 -0.572918,1.119793 0,0.664064 0.651043,1.080731 0.638022,0.416667 2.565107,1.145835 3.958339,1.484376 3.958339,4.804693 z"
             style="font-family:Dyuthi;-inkscape-font-specification:Dyuthi;fill:#ffffff"
             id="path55646" />
          <path
             d="m 55.317983,42.857476 v 7.226571 h 1.875002 q 0.976564,0 1.705732,-0.781251 0.742188,-0.781251 0.742188,-2.825524 0,-2.031253 -0.742188,-2.825524 -0.742189,-0.794272 -1.705732,-0.794272 z m 3.007816,9.03647 -3.007816,0.03906 v 3.82813 q 0,0.807293 -0.572917,1.367189 -0.572918,0.559897 -1.328127,0.533855 h -0.05208 Q 52.557566,57.68822 52.036732,57.115304 51.463814,56.59447 51.463814,55.761136 V 43.287164 q 0,-0.755209 0.572918,-1.328127 0.572917,-0.572917 1.38021,-0.572917 h 4.492193 q 0.468751,0 0.820314,0.0651 1.901044,0.286459 3.177087,1.770836 1.276043,1.484376 1.276043,3.255212 0,1.757815 -1.002605,3.320317 -1.341148,2.070315 -3.854172,2.096357 z"
             style="font-family:Dyuthi;-inkscape-font-specification:Dyuthi;fill:#ffffff"
             id="path55648" />
        </g>
      </g>
    </g>
  </g>
</svg>
