<?xml version="1.0" encoding="UTF-8"?>
<svg xmlns="http://www.w3.org/2000/svg" version="1.1" viewBox="164 112 332 273">
<g style="fill:none; stroke:#000000; stroke-width:7; stroke-linecap:round; stroke-miterlimit:10">
<path d="M346.2,219.2c25.5-24.2,47-32.1,87-39.7"/>
<path d="M346.6,236c25.5-24.2,47-32.1,87-39.7"/>
<path d="M346.2,252.2c25.5-24.2,47-32.1,87-39.7"/>
<path d="M347,270.1c25.5-24.2,47-32.1,87-39.7"/>
<path d="M347.4,286.8c25.5-24.2,47-32.1,87-39.7"/>
<path d="M348,305.1c25.5-24.2,47-32.1,87-39.7"/>
<path d="M348,320.9c25.5-24.2,47-32.1,87-39.7"/>
<path d="M241,179.6c-3-0.6-6.1-1.2-9.3-1.8"/>
<path d="M318.7,217.4c-5.5-5.2-4.8-5.7-10.1-9.5"/>
<path d="M238.1,195.6c-3.4-0.7-3-0.4-6.8-1.2"/>
<path d="M318.3,234.1c-5.9-5.6-4.6-4.3-10.3-8.4"/>
<path d="M237.1,211.8c-3.3-0.7-1.8-0.4-5.4-1.1"/>
<path d="M318.7,250.4c-5.9-5.6-5.6-4.3-11.3-8.4"/>
<path d="M237.2,230.2c-4.2-0.9-1.6-0.8-6.3-1.7"/>
<path d="M317.9,268.2c-4.8-4.6-5.5-4.6-10.3-8.2"/>
<path d="M237.7,246.3c-3.2-0.7-3.6-0.4-7.1-1"/>
<path d="M285.5,262.8c-8.9-4.7-16.4-8.3-27.4-11.3"/>
<path d="M317.5,284.9c-5.8-5.5-10.4-9.2-16-13.2"/>
<path d="M316.9,303.2c-25.5-24.2-47-32.1-87-39.7"/>
<path d="M316.9,319.1c-25.5-24.2-47-32.1-87-39.7"/>
</g>
<path d="m 460.16525,167.09705 c -0.51861,0 -4.17525,0.0115 -7.10525,0.17581 l 0,-6.96995 c 0,-8.44006 -5.0396,-14.80384 -12.61365,-14.80384 -0.85849,0 -1.39175,0.0847 -2.25903,0.25767 -0.61237,0.11989 -60.01519,12.26478 -106.64907,49.54519 C 322.51385,188.08596 312.42,181.81304 303.63,176.38642 l 0,-7.35649 c 0,-12.99397 -1.57927,-26.26324 -21.50034,-33.2039 l -25.45291,-8.88519 c -2.65458,-0.95762 -5.25056,-1.44084 -7.7645,-1.44084 -11.94854,0 -19.07723,10.80925 -19.07723,21.26122 0,0.0346 0.006,0.0646 0.0117,0.0997 -2.97981,-0.73212 -4.69679,-1.08357 -4.79934,-1.10115 -0.86142,-0.17004 -2.84796,-0.25478 -3.70645,-0.25478 -7.56819,-0.006 -14.40095,6.35789 -14.40095,14.79502 l 0,6.96994 c -2.93,-0.16082 -6.58371,-0.17581 -7.10525,-0.17581 -9.00389,0 -16.33475,7.32134 -16.33475,16.32077 l 0,128.47826 c 0,7.95103 8.79,14.5871 14.65,16.02795 l 0,14.02773 c 0,9.00232 8.18349,16.86549 17.19031,16.86549 l 92.22175,0 c 2.59891,2.92855 8.24795,8.78564 14.80529,8.78564 l 18.86334,0 c 6.55148,0 12.20345,-5.85709 14.80236,-8.78564 l 95.75533,0 c 9.00682,0 15.92162,-7.86317 15.92162,-16.86255 l 0,-15.13477 c 5.86,-2.54487 8.79,-8.27019 8.79,-14.92091 l 0,-128.47826 c 0,-8.99943 -7.32793,-16.32082 -16.33475,-16.32082 z m -8.38273,180.00313 -90.66885,0 C 399.74865,332.45746 438.41,328.81725 453.06,328.33115 l 0,13.61772 c 0,2.05289 0.77938,5.15131 -1.27748,5.15131 z M 209.87,341.95181 l 0,-13.48307 c 20.51,0.76729 56.62811,3.98872 92.60851,18.63144 l -87.1382,0 c -2.051,0 -5.47031,-3.09842 -5.47031,-5.14837 z M 198.15,183.41787 c 0,-2.05001 0.65339,-3.71929 2.70732,-3.71929 0.13185,0 3.15268,0.0115 6.08268,0.21386 l 0,108.87167 c 0,8.52204 7.01442,16.3647 14.54452,17.86116 3.88518,0.77023 27.69143,5.69898 55.10744,18.32392 -37.27546,-8.95545 -69.7047,-9.35083 -74.89666,-9.35083 -2.051,0 -3.5453,-1.66928 -3.5453,-3.72217 l 0,-128.47826 z m 23.61873,-25.29974 c 0.22268,0.0461 8.61127,1.71909 20.33127,5.69604 l 0,81.85286 c 0,2.02655 1.79609,3.90374 3.54237,4.93169 1.75214,1.03083 4.27487,1.06305 6.04459,0.0847 l 20.16719,-11.0084 21.73181,25.84153 c 1.11047,1.32659 2.77471,2.05289 4.43895,2.05289 0.65339,0 1.25404,-0.11413 1.89278,-0.34586 2.26782,-0.82291 3.71231,-2.97541 3.71231,-5.38557 l 0,-70.81811 c 5.86,4.55678 14.65,9.66711 23.44,15.38655 l 0,0.85513 0,131.59426 C 283.12,306.28166 231.80984,295.47824 225.74474,294.27754 224.43503,294.01699 221.59,291.59207 221.59,288.78066 l 0,-128.48121 c 0,-1.40567 -0.13771,-2.10857 0.17873,-2.18178 z m 27.16403,-21.16461 c 1.18372,0 2.49929,0.25478 3.9555,0.78193 l 25.33571,8.90864 c 11.97198,4.17029 13.68603,10.01274 13.68603,22.3829 l 0,77.04711 -14.33649,-17.36918 c -1.11633,-1.33835 -2.63114,-2.05295 -4.28659,-2.05295 -0.9376,0 -2.43776,0.23403 -3.30797,0.71166 l -16.15895,8.60406 0,-75.40711 c 0,-4.97562 0.60065,-16.62247 -11.52076,-16.62247 -0.43364,0 -0.57428,0.0519 -0.99327,0.14641 0.75008,-3.42347 3.26988,-7.13106 7.62679,-7.13106 z M 441.34,288.78112 c 0,2.91684 -1.39175,5.23622 -2.6956,5.49688 -6.05924,1.2007 -55.9044,12.00994 -99.8544,44.58127 l 0,-131.5972 0,-0.85513 c 43.95,-36.36665 101.72667,-48.17456 102.45331,-48.31221 0.18166,0.0968 0.0967,0.79657 0.0967,2.20519 l 0,128.4812 z m 19.95037,26.83719 c -5.19489,0 -37.68273,0.38966 -74.95526,9.345 27.40722,-12.625 50.02682,-17.55375 53.912,-18.32098 7.53303,-1.49064 12.81289,-9.33624 12.81289,-17.86121 l 0,-108.86874 c 2.93,-0.19945 7.41876,-0.21097 7.55061,-0.21097 2.05393,0 4.16939,1.66634 4.16939,3.71929 l 0,128.47826 c 0,2.04995 -1.43863,3.71923 -3.48963,3.71923 z"/>
</svg>