<?xml version="1.0" encoding="UTF-8" standalone="no"?>
<svg
   xmlns:dc="http://purl.org/dc/elements/1.1/"
   xmlns:cc="http://creativecommons.org/ns#"
   xmlns:rdf="http://www.w3.org/1999/02/22-rdf-syntax-ns#"
   xmlns:svg="http://www.w3.org/2000/svg"
   xmlns="http://www.w3.org/2000/svg"
   xmlns:sodipodi="http://sodipodi.sourceforge.net/DTD/sodipodi-0.dtd"
   xmlns:inkscape="http://www.inkscape.org/namespaces/inkscape"
   id="svg1"
   sodipodi:docname="earth.svg"
   viewBox="0 0 60 60"
   sodipodi:version="0.32"
   _SVGFile__filename="oldscale/apps/www.svg"
   version="1.0"
   y="0"
   x="0"
   inkscape:version="0.92.5 (2060ec1f9f, 2020-04-08)">
  <defs
     id="defs13" />
  <sodipodi:namedview
     id="base"
     bordercolor="#666666"
     inkscape:pageshadow="2"
     inkscape:window-y="149"
     pagecolor="#ffffff"
     inkscape:window-height="1109"
     inkscape:zoom="7.5643399"
     inkscape:window-x="2435"
     borderopacity="1.0"
     inkscape:current-layer="svg1"
     inkscape:cx="22.311406"
     inkscape:cy="25.231"
     inkscape:window-width="1495"
     inkscape:pageopacity="0.0"
     showgrid="false"
     inkscape:pagecheckerboard="true"
     inkscape:object-paths="true"
     inkscape:window-maximized="0" />
  <path
     id="path640"
     style="stroke-linejoin:round;fill-rule:evenodd;stroke:#000000;stroke-linecap:round;stroke-width:2.34830974;fill:none;stroke-miterlimit:4;stroke-dasharray:none"
     d="m57.62 31.04c0 14.747-11.969 26.716-26.716 26.716s-26.715-11.969-26.715-26.716c-0.0003-14.747 11.968-26.716 26.715-26.716 14.747 0.0005 26.716 11.969 26.716 26.716z"
     transform="matrix(.94749 0 0 .94749 .71846 .58976)" />
  <path
     id="path593"
     style="stroke-linejoin:round;stroke:#000000;stroke-linecap:round;stroke-width:1.79421419;fill:none;opacity:1;stroke-miterlimit:4;stroke-dasharray:none"
     transform="matrix(.94749 0 0 .94749 .71846 .58976)"
     d="m44.667 53.957l0.891-3.602 5.442-8.707-2.869 1.385-5.64-6.333 0.989-0.396 5.145 4.75 4.651-6.926-1.386-0.495-1.286 1.484-1.979-2.177 0.891-0.593 2.671 0.791 3.266-2.473h2.275m-17.552-24.737l-2.732 0.9895 3.661 4.3535-3.859 4.651-1.187-0.99 1.385-1.088-3.661-0.99-4.65 5.937 1.682 0.297 0.594 2.177 1.682-2.276-0.297-1.781 1.088-2.078h0.891l-1.188 2.276 0.891 1.187-0.099 2.474-5.739 1.583-3.661 2.276 0.693 2.968-3.562-0.396-0.594 2.177-0.693 1.385 1.188 0.693 0.593 0.396 2.078 0.099 1.484-2.771h0.792l0.594-0.89 2.671-0.891 2.672 3.562 0.989-0.989-2.473-2.969h0.989l3.76 5.047 1.088-2.87 1.485-0.198 0.395-3.364 4.948 0.99-0.099 1.187-5.64 2.078 0.692 1.682 3.958-0.792-0.099 3.661-2.77 0.99-4.156-0.693-0.692 1.188-4.651-1.287-0.099-2.276-10.191 1.188-0.495 2.177-3.562 2.176-0.792 4.75 3.859 5.541 8.312 1.286 2.473 0.99-0.395 1.682 2.077 1.781 0.396 0.989-1.187 1.188 2.869 1.187" />
  <path
     id="path594"
     style="stroke-linejoin:round;stroke:#000000;stroke-linecap:round;stroke-width:1.79421419;fill:none;stroke-miterlimit:4;stroke-dasharray:none"
     transform="matrix(.94749 0 0 .94749 .71846 .58976)"
     d="m8.0573 17.208l2.6717-0.99v-0.989h0.692v0.989l1.386-0.099 3.958-6.035-4.552 1.88v-0.099" />
  <path
     id="path595"
     style="stroke-linejoin:round;stroke:#000000;stroke-linecap:round;stroke-width:1.47758815;fill:none;stroke-miterlimit:4;stroke-dasharray:none"
     transform="matrix(.94749 0 0 .94749 .71846 .58976)"
     d="m16.962 14.338l4.057-1.682 3.661-0.494 3.958-4.1561-4.551-0.5937-3.068 3.3638-4.057 3.562z" />
  <path
     id="path597"
     style="stroke-linejoin:round;stroke:#000000;stroke-linecap:round;stroke-width:2.6385;fill:none"
     transform="matrix(.94749 0 0 .94749 .71846 .58976)"
     d="m24.581 23.54l2.573-0.692-1.286-2.375 0.692-0.594-0.791-0.791-1.188 4.452z" />
  <path
     id="path598"
     style="stroke-linejoin:round;stroke:#000000;stroke-linecap:round;stroke-width:2.6385;fill:none"
     transform="matrix(.94749 0 0 .94749 .71846 .58976)"
     d="m24.186 22.353l0.296-1.583-1.682 1.088 1.386 0.495z" />
  <metadata
     id="metadata10">
    <rdf:RDF>
      <cc:Work>
        <dc:format>image/svg+xml</dc:format>
        <dc:type
           rdf:resource="http://purl.org/dc/dcmitype/StillImage" />
        <cc:license
           rdf:resource="http://creativecommons.org/publicdomain/zero/1.0/" />
        <dc:publisher>
          <cc:Agent
             rdf:about="http://openclipart.org/">
            <dc:title>Openclipart</dc:title>
          </cc:Agent>
        </dc:publisher>
        <dc:title></dc:title>
      </cc:Work>
      <cc:License
         rdf:about="http://creativecommons.org/publicdomain/zero/1.0/">
        <cc:permits
           rdf:resource="http://creativecommons.org/ns#Reproduction" />
        <cc:permits
           rdf:resource="http://creativecommons.org/ns#Distribution" />
        <cc:permits
           rdf:resource="http://creativecommons.org/ns#DerivativeWorks" />
      </cc:License>
    </rdf:RDF>
  </metadata>
</svg>
