<?xml version="1.0" encoding="UTF-8"?>
<!DOCTYPE svg PUBLIC "-//W3C//DTD SVG 1.1//EN" "http://www.w3.org/Graphics/SVG/1.1/DTD/svg11.dtd">
<svg version="1.1" xmlns="http://www.w3.org/2000/svg" xmlns:xlink="http://www.w3.org/1999/xlink" x="0" y="0" width="350.936" height="348.535" viewBox="0, 0, 350.936, 348.535">
  <g id="Right_Triangle">
    <path d="M311.25,232.5 L311.25,7.5 L11.25,232.5 z" fill-opacity="0" stroke="#000000" stroke-width="7.5" id="polygon1267"/>
    <path d="M273.75,232.5 L273.75,195 L311.25,195" fill-opacity="0" stroke="#000000" stroke-width="7.5" id="polyline1269"/>
  </g>
  <g id="Side_names">
    <path d="M149.139,86.229 L149.139,93.073 Q147.616,91.901 146.046,91.338 Q144.499,90.776 142.835,90.776 Q139.671,90.776 137.913,92.838 Q136.155,94.878 136.155,98.557 Q136.155,102.237 137.913,104.299 Q139.671,106.338 142.835,106.338 Q144.616,106.338 146.21,105.753 Q147.804,105.167 149.139,104.018 L149.139,110.885 Q147.382,111.612 145.554,111.963 Q143.725,112.338 141.897,112.338 Q135.499,112.338 131.889,108.706 Q128.28,105.049 128.28,98.557 Q128.28,92.065 131.889,88.432 Q135.499,84.776 141.897,84.776 Q143.749,84.776 145.554,85.151 Q147.358,85.503 149.139,86.229 z" fill="#000000" id="path2417"/>
    <path d="M339.405,133.061 Q337.038,133.061 335.843,133.951 Q334.647,134.842 334.647,136.576 Q334.647,138.17 335.608,139.084 Q336.569,139.975 338.28,139.975 Q340.413,139.975 341.866,138.287 Q343.319,136.576 343.319,134.022 L343.319,133.061 z M350.936,129.897 L350.936,144.873 L343.319,144.873 L343.319,140.982 Q341.796,143.373 339.897,144.475 Q337.999,145.553 335.28,145.553 Q331.6,145.553 329.304,143.186 Q327.03,140.795 327.03,136.998 Q327.03,132.381 329.889,130.225 Q332.749,128.068 338.866,128.068 L343.319,128.068 L343.319,127.412 Q343.319,125.42 341.889,124.506 Q340.483,123.568 337.507,123.568 Q335.069,123.568 332.983,124.107 Q330.897,124.647 329.093,125.725 L329.093,119.326 Q331.53,118.67 333.968,118.342 Q336.429,117.99 338.866,117.99 Q345.264,117.99 348.1,120.803 Q350.936,123.592 350.936,129.897 z" fill="#000000" id="path2420"/>
    <path d="M174.231,276.066 Q176.669,276.066 177.934,274.097 Q179.223,272.129 179.223,268.379 Q179.223,264.629 177.934,262.66 Q176.669,260.691 174.231,260.691 Q171.817,260.691 170.504,262.683 Q169.215,264.652 169.215,268.379 Q169.215,272.105 170.504,274.097 Q171.817,276.066 174.231,276.066 z M169.215,259.074 Q170.786,256.777 172.684,255.699 Q174.583,254.597 177.044,254.597 Q181.403,254.597 184.215,258.465 Q187.028,262.308 187.028,268.379 Q187.028,274.449 184.215,278.316 Q181.403,282.16 177.044,282.16 Q174.583,282.16 172.684,281.082 Q170.786,279.98 169.215,277.683 L169.215,281.48 L161.669,281.48 L161.669,245.011 L169.215,245.011 z" fill="#000000" id="path2423"/>
  </g>
  <g id="Formula">
    <g id="text1014-7">
      <path d="M94.617,322.426 L94.617,329.27 Q93.094,328.098 91.524,327.535 Q89.977,326.973 88.313,326.973 Q85.149,326.973 83.391,329.035 Q81.633,331.075 81.633,334.754 Q81.633,338.434 83.391,340.496 Q85.149,342.535 88.313,342.535 Q90.094,342.535 91.688,341.95 Q93.281,341.364 94.617,340.215 L94.617,347.082 Q92.86,347.809 91.031,348.16 Q89.203,348.535 87.375,348.535 Q80.977,348.535 77.367,344.903 Q73.758,341.246 73.758,334.754 Q73.758,328.262 77.367,324.629 Q80.977,320.973 87.375,320.973 Q89.227,320.973 91.031,321.348 Q92.836,321.7 94.617,322.426 z" fill="#000000" id="path2426"/>
      <path d="M125.801,324.723 L152.848,324.723 L152.848,330.231 L125.801,330.231 z M125.801,335.387 L152.848,335.387 L152.848,340.942 L125.801,340.942 z" fill="#000000" id="path2428"/>
      <path d="M181.429,336.043 Q179.062,336.043 177.867,336.934 Q176.671,337.825 176.671,339.559 Q176.671,341.153 177.632,342.067 Q178.593,342.957 180.304,342.957 Q182.437,342.957 183.89,341.27 Q185.343,339.559 185.343,337.004 L185.343,336.043 z M192.961,332.879 L192.961,347.856 L185.343,347.856 L185.343,343.965 Q183.82,346.356 181.921,347.457 Q180.023,348.535 177.304,348.535 Q173.625,348.535 171.328,346.168 Q169.054,343.778 169.054,339.981 Q169.054,335.364 171.914,333.207 Q174.773,331.051 180.89,331.051 L185.343,331.051 L185.343,330.395 Q185.343,328.403 183.914,327.489 Q182.507,326.551 179.531,326.551 Q177.093,326.551 175.007,327.09 Q172.921,327.629 171.117,328.707 L171.117,322.309 Q173.554,321.653 175.992,321.325 Q178.453,320.973 180.89,320.973 Q187.289,320.973 190.125,323.785 Q192.961,326.575 192.961,332.879 z" fill="#000000" id="path2430"/>
      <path d="M235.305,317.762 L235.305,330.043 L246.321,330.043 L246.321,335.575 L235.305,335.575 L235.305,347.856 L230.29,347.856 L230.29,335.575 L219.274,335.575 L219.274,330.043 L230.29,330.043 L230.29,317.762 z" fill="#000000" id="path2432"/>
      <path d="M273.923,342.442 Q276.36,342.442 277.626,340.473 Q278.915,338.504 278.915,334.754 Q278.915,331.004 277.626,329.035 Q276.36,327.067 273.923,327.067 Q271.509,327.067 270.196,329.059 Q268.907,331.028 268.907,334.754 Q268.907,338.481 270.196,340.473 Q271.509,342.442 273.923,342.442 z M268.907,325.45 Q270.478,323.153 272.376,322.075 Q274.274,320.973 276.735,320.973 Q281.095,320.973 283.907,324.84 Q286.72,328.684 286.72,334.754 Q286.72,340.825 283.907,344.692 Q281.095,348.535 276.735,348.535 Q274.274,348.535 272.376,347.457 Q270.478,346.356 268.907,344.059 L268.907,347.856 L261.36,347.856 L261.36,311.387 L268.907,311.387 z" fill="#000000" id="path2434"/>
    </g>
    <path d="M106.071,325.45 L112.997,325.45 L112.997,328.767 L101.559,328.767 L101.559,325.45 L107.301,319.814 Q108.075,319.04 108.438,318.302 Q108.813,317.564 108.813,316.767 Q108.813,315.536 108.063,314.786 Q107.325,314.036 106.094,314.036 Q105.145,314.036 104.008,314.493 Q102.883,314.939 101.594,315.829 L101.594,311.985 Q102.966,311.482 104.301,311.224 Q105.649,310.954 106.938,310.954 Q109.762,310.954 111.321,312.337 Q112.891,313.72 112.891,316.192 Q112.891,317.622 112.223,318.864 Q111.567,320.095 109.434,322.169 z" fill="#000000" id="path2437"/>
    <path d="M203.571,325.45 L210.497,325.45 L210.497,328.767 L199.059,328.767 L199.059,325.45 L204.802,319.814 Q205.575,319.04 205.938,318.302 Q206.313,317.564 206.313,316.767 Q206.313,315.536 205.563,314.786 Q204.825,314.036 203.595,314.036 Q202.645,314.036 201.509,314.493 Q200.384,314.939 199.095,315.829 L199.095,311.985 Q200.466,311.482 201.802,311.224 Q203.149,310.954 204.438,310.954 Q207.262,310.954 208.821,312.337 Q210.391,313.72 210.391,316.192 Q210.391,317.622 209.723,318.864 Q209.067,320.095 206.934,322.169 z" fill="#000000" id="path2440"/>
    <path d="M296.571,325.45 L303.497,325.45 L303.497,328.767 L292.059,328.767 L292.059,325.45 L297.802,319.814 Q298.575,319.04 298.938,318.302 Q299.313,317.564 299.313,316.767 Q299.313,315.536 298.563,314.786 Q297.825,314.036 296.595,314.036 Q295.645,314.036 294.509,314.493 Q293.384,314.939 292.095,315.829 L292.095,311.985 Q293.466,311.482 294.802,311.224 Q296.149,310.954 297.438,310.954 Q300.263,310.954 301.821,312.337 Q303.391,313.72 303.391,316.192 Q303.391,317.622 302.723,318.864 Q302.067,320.095 299.934,322.169 z" fill="#000000" id="path2443"/>
  </g>
</svg>
